<?xml version="1.0" encoding="UTF-8"?>
<!DOCTYPE svg PUBLIC "-//W3C//DTD SVG 1.1//EN" "http://www.w3.org/Graphics/SVG/1.1/DTD/svg11.dtd">
<svg xmlns="http://www.w3.org/2000/svg" version="1.1" width="600px" height="600px" style="shape-rendering:geometricPrecision; text-rendering:geometricPrecision; image-rendering:optimizeQuality; fill-rule:evenodd; clip-rule:evenodd" xmlns:xlink="http://www.w3.org/1999/xlink">
<g><path style="opacity:0.964" fill="#000000" d="M 296.5,132.5 C 296.5,133.5 296.5,134.5 296.5,135.5C 284.859,128.758 272.192,125.758 258.5,126.5C 193.702,128.783 146.535,158.45 117,215.5C 116.5,167.834 116.333,120.168 116.5,72.5C 159.168,72.3333 201.835,72.5 244.5,73C 261.969,92.8117 279.302,112.645 296.5,132.5 Z"/></g>
<g><path style="opacity:0.982" fill="#0067b3" d="M 296.5,135.5 C 296.5,134.5 296.5,133.5 296.5,132.5C 313.891,112.927 331.225,93.0936 348.5,73C 391.832,72.5 435.165,72.3333 478.5,72.5C 478.832,171.404 478.499,270.237 477.5,369C 443.833,369.667 410.167,369.667 376.5,369C 375.167,368.333 375.167,367.667 376.5,367C 394.757,358.646 406.591,344.812 412,325.5C 414.139,314.46 411.139,305.126 403,297.5C 401.376,326.602 388.542,349.102 364.5,365C 355.819,368.284 347.152,368.284 338.5,365C 336.291,363.127 334.458,360.96 333,358.5C 331.538,347.459 332.871,336.792 337,326.5C 362.198,265.868 395.365,210.035 436.5,159C 422.517,159.084 408.517,159.75 394.5,161C 367.348,196.47 339.182,230.97 310,264.5C 286.832,290.332 261.665,314.165 234.5,336C 222.122,345.038 208.789,352.371 194.5,358C 185.63,361.032 176.63,361.699 167.5,360C 163.136,354.79 162.303,348.957 165,342.5C 169.114,334.486 173.78,326.819 179,319.5C 208.202,284.623 238.535,250.623 270,217.5C 275.546,209.71 281.546,202.376 288,195.5C 293.052,188.672 297.885,181.672 302.5,174.5C 305.814,168.562 308.147,162.229 309.5,155.5C 308.33,146.684 303.997,140.017 296.5,135.5 Z"/></g>
<g><path style="opacity:0.963" fill="#000000" d="M 239.5,133.5 C 247.886,133.213 256.219,133.713 264.5,135C 274.158,138.004 277.991,144.504 276,154.5C 274.186,158.953 272.186,163.286 270,167.5C 261.802,178.573 253.135,189.24 244,199.5C 213.497,229.993 184.497,261.66 157,294.5C 148.352,306.796 141.019,319.796 135,333.5C 132.66,341.776 133.327,349.776 137,357.5C 140.311,362.645 144.478,366.978 149.5,370.5C 138.52,371.499 127.52,371.832 116.5,371.5C 116.333,329.499 116.5,287.499 117,245.5C 129.625,262.758 146.125,267.591 166.5,260C 138.073,253.243 127.573,235.743 135,207.5C 140.293,193.767 148.46,181.934 159.5,172C 182.997,152.417 209.663,139.584 239.5,133.5 Z"/></g>
<g><path style="opacity:0.862" fill="#000000" d="M 248.5,335.5 C 250.479,347.12 251.146,359.12 250.5,371.5C 230.156,371.833 209.822,371.5 189.5,370.5C 210.967,361.664 230.634,349.997 248.5,335.5 Z"/></g>
<g><path style="opacity:0.906" fill="#000000" d="M 370.5,383.5 C 381.137,382.14 391.137,383.974 400.5,389C 405.78,393.728 408.78,399.562 409.5,406.5C 402.159,406.666 394.826,406.5 387.5,406C 383.819,401.679 379.152,400.346 373.5,402C 372.978,402.561 372.645,403.228 372.5,404C 373.34,405.767 374.673,407.101 376.5,408C 386.096,410.379 395.429,413.379 404.5,417C 411.965,424.968 413.465,434.134 409,444.5C 404.381,450.779 398.214,454.612 390.5,456C 374.815,459.632 361.648,455.799 351,444.5C 349.119,440.693 347.953,436.693 347.5,432.5C 355.5,432.5 363.5,432.5 371.5,432.5C 372.372,437.355 375.372,439.689 380.5,439.5C 382.782,438.777 385.116,438.443 387.5,438.5C 388.916,436.14 388.583,434.14 386.5,432.5C 380.096,429.755 373.43,427.922 366.5,427C 350.733,421.772 345.733,411.272 351.5,395.5C 356.454,389.196 362.787,385.196 370.5,383.5 Z"/></g>
<g><path style="opacity:0.906" fill="#000000" d="M 437.5,383.5 C 450.219,381.14 461.385,384.14 471,392.5C 473.933,396.366 475.766,400.699 476.5,405.5C 468.833,406.833 461.167,406.833 453.5,405.5C 451.943,402.123 449.276,400.789 445.5,401.5C 443.833,401.667 442.167,401.833 440.5,402C 439.978,402.561 439.645,403.228 439.5,404C 441.032,406.117 443.032,407.784 445.5,409C 454.251,410.544 462.585,413.211 470.5,417C 479.346,425.273 480.846,434.773 475,445.5C 470.288,451.542 464.121,455.042 456.5,456C 443.378,458.673 431.545,456.173 421,448.5C 417.325,443.818 415.158,438.485 414.5,432.5C 422.5,432.5 430.5,432.5 438.5,432.5C 439.372,437.355 442.372,439.689 447.5,439.5C 451.112,439.457 453.779,437.957 455.5,435C 454.5,434 453.5,433 452.5,432C 442.993,429.421 433.66,426.421 424.5,423C 416.839,416.602 414.339,408.435 417,398.5C 418.29,396.041 419.79,393.708 421.5,391.5C 426.616,388.249 431.949,385.582 437.5,383.5 Z"/></g>
<g><path style="opacity:0.948" fill="#000000" d="M 116.5,385.5 C 124.167,385.5 131.833,385.5 139.5,385.5C 139.333,400.837 139.5,416.17 140,431.5C 142.425,437.795 146.925,439.962 153.5,438C 156.738,435.695 158.572,432.528 159,428.5C 159.5,414.171 159.667,399.837 159.5,385.5C 167.167,385.5 174.833,385.5 182.5,385.5C 182.667,402.503 182.5,419.503 182,436.5C 176.919,452.069 166.085,458.736 149.5,456.5C 135.17,458.25 124.67,452.916 118,440.5C 116.539,422.235 116.039,403.902 116.5,385.5 Z"/></g>
<g><path style="opacity:0.934" fill="#000000" d="M 193.5,385.5 C 202.857,385.168 212.19,385.502 221.5,386.5C 224.791,398.964 228.458,411.297 232.5,423.5C 236.04,411.134 239.707,398.801 243.5,386.5C 253.144,385.502 262.81,385.168 272.5,385.5C 272.5,408.5 272.5,431.5 272.5,454.5C 265.167,454.5 257.833,454.5 250.5,454.5C 250.666,444.161 250.5,433.828 250,423.5C 246.995,433.506 243.995,443.506 241,453.5C 235.221,454.807 229.388,454.807 223.5,453.5C 220.879,443.103 218.046,432.77 215,422.5C 214.5,433.161 214.333,443.828 214.5,454.5C 207.5,454.5 200.5,454.5 193.5,454.5C 193.5,431.5 193.5,408.5 193.5,385.5 Z"/></g>
<g><path style="opacity:0.933" fill="#000000" d="M 299.5,385.5 C 307.86,385.169 316.193,385.502 324.5,386.5C 332.652,408.772 340.652,431.105 348.5,453.5C 340.528,454.498 332.528,454.831 324.5,454.5C 323.539,451.574 322.873,448.574 322.5,445.5C 315.468,445.17 308.468,445.503 301.5,446.5C 300.215,449.021 299.548,451.687 299.5,454.5C 291.472,454.831 283.472,454.498 275.5,453.5C 284.37,431.173 292.37,408.507 299.5,385.5 Z M 311.5,410.5 C 313.867,416.957 315.867,423.624 317.5,430.5C 313.833,430.5 310.167,430.5 306.5,430.5C 308.166,423.835 309.832,417.169 311.5,410.5 Z"/></g>
<g><path style="opacity:0.931" fill="#0068b3" d="M 192.5,466.5 C 210.156,465.316 219.822,473.482 221.5,491C 220.759,503.06 214.759,511.06 203.5,515C 177.074,516.24 167.24,504.074 174,478.5C 178.547,471.749 184.713,467.749 192.5,466.5 Z M 193.5,479.5 C 198.421,479.043 201.921,481.043 204,485.5C 204.667,489.5 204.667,493.5 204,497.5C 199.923,503.12 195.256,503.787 190,499.5C 185.936,491.751 187.103,485.084 193.5,479.5 Z"/></g>
<g><path style="opacity:0.926" fill="#0068b2" d="M 236.5,467.5 C 241.833,467.5 247.167,467.5 252.5,467.5C 253.976,473.766 255.143,480.099 256,486.5C 256.29,488.044 256.956,489.377 258,490.5C 259.345,482.791 260.845,475.124 262.5,467.5C 267.5,467.5 272.5,467.5 277.5,467.5C 278.2,475.303 279.7,482.969 282,490.5C 283.932,482.908 285.432,475.241 286.5,467.5C 291.844,467.334 297.177,467.501 302.5,468C 302.957,468.414 303.291,468.914 303.5,469.5C 298.135,483.898 293.635,498.564 290,513.5C 284.593,514.473 279.093,514.807 273.5,514.5C 272.275,506.869 271.108,499.203 270,491.5C 267.703,499.021 266.203,506.688 265.5,514.5C 259.907,514.807 254.407,514.473 249,513.5C 244.522,498.223 240.355,482.889 236.5,467.5 Z"/></g>
<g><path style="opacity:0.947" fill="#0068b2" d="M 116.5,467.5 C 121.5,467.5 126.5,467.5 131.5,467.5C 131.5,478.5 131.5,489.5 131.5,500.5C 138.508,500.334 145.508,500.5 152.5,501C 153.467,505.401 153.8,509.901 153.5,514.5C 141.167,514.5 128.833,514.5 116.5,514.5C 116.5,498.833 116.5,483.167 116.5,467.5 Z"/></g>
<g><path style="opacity:0.93" fill="#0068b2" d="M 320.5,467.5 C 334.167,467.5 347.833,467.5 361.5,467.5C 361.5,471.833 361.5,476.167 361.5,480.5C 353.167,480.5 344.833,480.5 336.5,480.5C 336.5,482.167 336.5,483.833 336.5,485.5C 344.167,485.5 351.833,485.5 359.5,485.5C 359.5,489.5 359.5,493.5 359.5,497.5C 351.833,497.5 344.167,497.5 336.5,497.5C 336.5,498.5 336.5,499.5 336.5,500.5C 344.833,500.5 353.167,500.5 361.5,500.5C 361.5,505.167 361.5,509.833 361.5,514.5C 347.833,514.5 334.167,514.5 320.5,514.5C 320.5,498.833 320.5,483.167 320.5,467.5 Z"/></g>
<g><path style="opacity:0.903" fill="#0068b2" d="M 383.5,467.5 C 388.833,467.5 394.167,467.5 399.5,467.5C 399.5,478.5 399.5,489.5 399.5,500.5C 406.5,500.5 413.5,500.5 420.5,500.5C 420.5,505.167 420.5,509.833 420.5,514.5C 408.167,514.5 395.833,514.5 383.5,514.5C 383.5,498.833 383.5,483.167 383.5,467.5 Z"/></g>
<g><path style="opacity:0.913" fill="#0067b2" d="M 440.5,467.5 C 445.833,467.5 451.167,467.5 456.5,467.5C 456.5,478.5 456.5,489.5 456.5,500.5C 463.508,500.334 470.508,500.5 477.5,501C 478.467,505.401 478.8,509.901 478.5,514.5C 465.833,514.5 453.167,514.5 440.5,514.5C 440.5,498.833 440.5,483.167 440.5,467.5 Z"/></g>
</svg>
